<?xml version="1.0" encoding="UTF-8"?>
<svg xmlns="http://www.w3.org/2000/svg" version="1.1" viewBox="0 0 767.5 144.9">
  <defs>
    <style>
      .cls-1 {
        fill-rule: evenodd;
      }

      .cls-1, .cls-2 {
        fill: #465fff;
      }
    </style>
  </defs>
  <g>
    <g id="Layer_1">
      <g>
        <path id="Object_161" class="cls-2" d="M247,144.9V0h-6.6v144.9h6.6Z"/>
        <path id="Object_124" class="cls-1" d="M115.6,76.2c0,25.6-20.7,46.4-46.3,46.4s-46.4-20.7-46.4-46.3h0V4.8h5.8v70.7c0,22.4,18.2,40.5,40.6,40.5,22.4,0,40.5-18.2,40.5-40.5V4.7h5.8v71.5ZM138.6,76.2c0,38.3-31,69.3-69.3,69.3C31.1,145.5,0,114.5,0,76.2V4.8h5.8v70.7c0,35.1,28.4,63.5,63.5,63.5s63.5-28.4,63.5-63.5h0V4.7h5.8v71.5ZM127.1,76.2c0,31.9-25.8,57.8-57.7,57.8-31.9,0-57.8-25.8-57.8-57.7h0V4.8h5.8v70.7c1.1,28.7,25.3,51,54,49.9,27.1-1.1,48.9-22.8,49.9-49.9V4.7h5.8v71.5ZM104.1,76.2c-.4,19.2-16.4,34.5-35.6,34-18.6-.4-33.5-15.4-34-33.9V4.8h5.8v70.8c0,16,13,29,29,29s29-13,29-29V4.7h5.8v71.5Z"/>
        <path id="Object_125" class="cls-2" d="M132.8,4.7h5.8l83.8,135.6h-7.2L132.8,4.7Z"/>
        <path id="Object_126" class="cls-2" d="M121.2,4.7h5.9l83.7,135.6h-7.2L121.2,4.7Z"/>
        <path id="Object_127" class="cls-2" d="M109.8,4.7h5.8l83.8,135.6h-7.2L109.8,4.7Z"/>
        <path id="Object_128" class="cls-2" d="M98.3,4.7h5.8l83.8,135.6h-7.2L98.3,4.7Z"/>
        <path id="Object_129" class="cls-2" d="M216.9,120.3V33.4l5.8,2.3v94l-5.8-9.4Z"/>
        <path id="Object_130" class="cls-2" d="M181.6,63V19.4l5.8,2.3v50.8l-5.8-9.4Z"/>
        <path id="Object_131" class="cls-2" d="M193.4,82.1V24.1l5.8,2.3v65.1l-5.8-9.4Z"/>
        <path id="Object_132" class="cls-2" d="M205.1,101.2V28.7l5.8,2.3v79.6l-5.8-9.4Z"/>
        <path id="Object_133" class="cls-2" d="M216.9,27.1V4.6h5.8v24.7l-5.8-2.3Z"/>
        <path id="Object_134" class="cls-2" d="M181.6,12.9V4.6h5.8v10.6l-5.8-2.4Z"/>
        <path id="Object_135" class="cls-2" d="M193.4,17.6V4.6h5.8v15.3l-5.8-2.3Z"/>
        <path id="Object_136" class="cls-2" d="M205.1,22.4V4.6h5.8v20l-5.8-2.3Z"/>
        <path id="Object_137" class="cls-2" d="M98.3,4.7v1.4l5.8,10v-2l-5.8-9.4Z"/>
        <path id="Object_138" class="cls-2" d="M109.8,4.7v1.4l5.8,10v-2l-5.8-9.4Z"/>
        <path id="Object_139" class="cls-2" d="M121.2,4.7v1.4l5.8,10v-2l-5.8-9.4Z"/>
        <path id="Object_140" class="cls-2" d="M132.8,4.7v1.4l5.8,10v-2l-5.8-9.4Z"/>
        <path id="Object_141" class="cls-2" d="M109.8,23.6v1.4l5.8,10.1v-2l-5.8-9.5Z"/>
        <path id="Object_142" class="cls-2" d="M121.2,23.5v1.4l5.8,10.1v-2l-5.8-9.5Z"/>
        <path id="Object_143" class="cls-2" d="M132.8,23.7v1.4l5.8,10v-2l-5.8-9.4Z"/>
        <path id="Object_144" class="cls-2" d="M121.3,42.5v1.4l5.8,10.1v-2l-5.8-9.5Z"/>
        <path id="Object_145" class="cls-2" d="M132.8,42.4v1.4l5.8,10v-1.9l-5.8-9.6Z"/>
        <path id="Object_146" class="cls-2" d="M132.8,61.4v1.4l5.8,10v-1.9l-5.8-9.5Z"/>
        <g>
          <path class="cls-2" d="M313.7,67.8c-1.1,0-2,0-3.1-.2-6.1-.4-9.4-2-13.1-7.2-3.1-4.3-6.1-9.6-8.8-13.8-1.7-2.7-2.8-3.2-7-3.2h-2.9v13.2c0,7.1.9,7.6,7.6,8.2v2.3h-22.4v-2.3c7-.8,7.6-1.1,7.6-8.2V23.1c0-7.1-.9-7.4-7.6-8.1v-2.3h21.4c6.1,0,10.2.8,13.4,2.9,3.4,2.2,5.7,6,5.7,11.1s-4.6,11.7-10.8,14.4c1.5,2.6,5.1,8.2,7.6,12,3.1,4.4,4.7,6.5,6.6,8.6,2.3,2.4,4.2,3.4,6.1,3.9l-.3,2.3ZM282.7,40.5c4.4,0,7.1-.7,9.2-2.4,3.3-2.4,4.6-5.8,4.6-10.3,0-9-6-12.3-12.4-12.3s-3.9.3-4.4.8c-.8.6-1,1.4-1,3.6v20.6h4Z"/>
          <path class="cls-2" d="M360.5,53.8c-.5,2.2-2.8,10.8-3.6,13.3h-40.8v-2.3c7.8-.6,8.4-1.3,8.4-8.2V23.4c0-7.5-.9-7.9-7.2-8.5v-2.3h25.7c7.9,0,11.2,0,12.2-.2,0,2.1.4,8.4.8,12.8l-2.5.4c-.8-2.9-1.6-4.6-2.5-6.4-1.3-2.8-3.3-3.4-8.3-3.4h-8c-2.6,0-2.8.3-2.8,2.7v18.5h9.3c6.3,0,6.7-1.3,7.7-7h2.6v17.3h-2.6c-1.1-6-1.8-6.9-7.8-6.9h-9.2v16.7c0,5.9,1.8,6.4,6,6.5h7.8c5.1,0,6-.8,7.8-2.9,1.6-1.8,3.4-5.2,4.5-7.7l2.5.7Z"/>
          <path class="cls-2" d="M388,12.6c6,0,10.7,1.1,14.2,3.6,3.3,2.4,5.5,6.4,5.5,11.9,0,12.3-10.5,17.2-18.5,17.2s-1.8,0-2.3-.2l-5.8-1.5v13.1c0,7,.6,7.2,8.3,8.1v2.3h-23.2v-2.3c7.2-.8,7.6-1.3,7.6-8.2V23.2c0-7.5-.9-7.6-7.6-8.3v-2.3h21.7ZM381.2,40.7c1,.5,3.3,1.1,6.1,1.1,5.6,0,12.6-2.9,12.6-13.4s-6-12.9-13.1-12.9-4.2.4-4.7,1c-.7.6-.9,1.6-.9,3.9v20.4Z"/>
          <path class="cls-2" d="M444.9,11.4c14.4,0,27.2,11,27.2,27.7s-12.3,29.3-27.7,29.3-27.9-12.3-27.9-28,10.7-29,28.4-29ZM443.2,14.5c-9.4,0-18,7.9-18,23.6s8.6,27.1,20.5,27.1,17.8-7.6,17.8-23.8-9.3-26.9-20.3-26.9Z"/>
          <path class="cls-2" d="M509.4,25.3c-1.4-5.5-3.8-11-11.7-11s-8.8,4.8-8.8,9.1,3.7,8.7,10.7,12.3c10.1,5.2,14.4,9.1,14.4,17s-7.6,15.5-18.5,15.5-9.4-1.4-12.8-2.8c-.7-2.3-1.7-8.1-2.3-12.6l2.6-.7c1.7,5.6,5.4,12.9,14.1,12.9s9.7-4.2,9.7-9.7-3.4-9.1-10.8-13.1c-8.8-4.8-13.8-8.8-13.8-16.6s6.2-14.5,17.3-14.5,9.3,1.3,11.1,1.6c.3,3,.7,6.4,1.3,11.8l-2.6.5Z"/>
          <path class="cls-2" d="M521.2,67.1v-2.3c6.9-.8,7.6-1.1,7.6-8.2V23.2c0-7.2-.7-7.6-7.6-8.3v-2.3h22.5v2.3c-7,.8-7.6,1.1-7.6,8.3v33.3c0,7.2.7,7.5,7.6,8.2v2.3h-22.5Z"/>
          <path class="cls-2" d="M596,25.8c-.8-2.7-1.8-5.5-2.7-7-1.3-2.3-2.2-2.9-6.8-2.9h-8.4v40.9c0,6.5.7,7.5,8.6,8v2.3h-24.4v-2.3c7.8-.5,8.5-1.3,8.5-8V15.9h-7.6c-4.6,0-6,.5-7.4,3-1,1.7-1.7,3.7-2.8,6.8h-2.5c.5-5.1,1-10.4,1.3-15.1h1.9c1.3,2,2.2,1.9,4.5,1.9h33.2c2.4,0,3-.3,4.3-1.9h2c0,3.9.3,10,.8,14.9l-2.5.3Z"/>
          <path class="cls-2" d="M633.8,11.4c14.4,0,27.2,11,27.2,27.7s-12.3,29.3-27.7,29.3-27.9-12.3-27.9-28,10.7-29,28.4-29ZM632.1,14.5c-9.4,0-18,7.9-18,23.6s8.6,27.1,20.5,27.1,17.8-7.6,17.8-23.8-9.3-26.9-20.3-26.9Z"/>
          <path class="cls-2" d="M718.9,67.8c-1.1,0-2,0-3.1-.2-6.1-.4-9.4-2-13.1-7.2-3.1-4.3-6.1-9.6-8.8-13.8-1.7-2.7-2.8-3.2-7-3.2h-2.9v13.2c0,7.1.9,7.6,7.6,8.2v2.3h-22.4v-2.3c7-.8,7.6-1.1,7.6-8.2V23.1c0-7.1-.9-7.4-7.6-8.1v-2.3h21.4c6.1,0,10.2.8,13.4,2.9,3.4,2.2,5.7,6,5.7,11.1s-4.6,11.7-10.8,14.4c1.5,2.6,5.1,8.2,7.6,12,3.1,4.4,4.7,6.5,6.6,8.6,2.3,2.4,4.2,3.4,6.1,3.9l-.3,2.3ZM687.9,40.5c4.4,0,7.1-.7,9.2-2.4,3.3-2.4,4.6-5.8,4.6-10.3,0-9-6-12.3-12.4-12.3s-3.9.3-4.4.8c-.8.6-1,1.4-1,3.6v20.6h4Z"/>
          <path class="cls-2" d="M767.5,14.9c-5.9.7-6.9,1.6-10.2,7-3.8,6.1-6.9,11.9-11,19.4-1,1.9-1.3,2.9-1.3,5v10.3c0,7,.8,7.5,8.6,8.2v2.3h-24.1v-2.3c7.6-1,8.2-1.2,8.2-8.2v-10.8c0-1.7-.3-2.4-1.7-4.9-2.9-5.5-5.8-10.7-10.3-18.6-3.3-5.7-4.1-6.7-9.8-7.3v-2.3h20.6v2.3c-6,.8-5.7,1.9-4.2,4.8,3.5,6.5,7.5,14,11,20.3,3-5.6,7.8-14.8,10.2-19.4,1.9-4.2,1.7-5-5-5.7v-2.3h19v2.3Z"/>
          <path class="cls-2" d="M280.8,91.5c9,0,14.7,1.8,18.7,5.6,3.1,3.1,5.4,7.6,5.4,13.7s-3.1,13.6-8,17.3c-4.9,3.6-11.1,5.1-18.9,5.1h-15v-1.8c5.5-.5,5.8-1,5.8-6.2v-25.5c0-5.5-.8-5.8-5.8-6.3v-1.8h17.8ZM274.3,124.6c0,4.8,2,6.1,6.8,6.1,11.5,0,17.4-7.9,17.4-19.1s-2.4-12.3-7.4-15.4c-2.9-1.9-6.7-2.6-10.9-2.6s-4.4.4-5.1.9c-.6.4-.8,1.1-.8,3.6v26.4Z"/>
          <path class="cls-2" d="M333.5,133.1v-1.8c4.2-.5,4.7-1.2,3.8-3.6-.8-2.5-2.1-5.7-3.5-9.7h-13.8c-1,2.9-2,5.4-2.9,8-1.4,4.2-.5,4.7,4.7,5.3v1.8h-14.8v-1.8c4-.5,5.1-1,7.3-6.7l13.2-33.6,2-.4c4,10.9,8.4,23,12.5,34.1,2,5.6,2.6,6.1,7.2,6.6v1.8h-15.8ZM327.1,99c-2,5.5-4.2,11.3-6.1,16.4h12l-5.8-16.4Z"/>
          <path class="cls-2" d="M375.1,101.3c-1.1-4.2-2.9-8.4-8.9-8.4s-6.7,3.6-6.7,7,2.8,6.7,8.1,9.4c7.7,4,11,6.9,11,13s-5.8,11.8-14.1,11.8-7.2-1.1-9.8-2.1c-.5-1.8-1.3-6.1-1.7-9.6l2-.5c1.3,4.3,4.1,9.9,10.8,9.9s7.4-3.2,7.4-7.4-2.6-6.9-8.3-10c-6.7-3.6-10.5-6.7-10.5-12.7s4.7-11.1,13.2-11.1,7.1,1,8.4,1.2c.3,2.3.5,4.9,1,9l-2,.4Z"/>
          <path class="cls-2" d="M428.6,93.3c-5.3.5-5.8.8-5.8,6.2v25.7c0,5.4.6,5.6,5.8,6.1v1.8h-17.2v-1.8c5.3-.6,5.8-.8,5.8-6.1v-12.8h-21.9v12.8c0,5.3.5,5.5,5.8,6.1v1.8h-17.1v-1.8c5.2-.6,5.8-.8,5.8-6.1v-25.7c0-5.4-.6-5.7-5.8-6.2v-1.8h17.1v1.8c-5.1.4-5.8.9-5.8,6.2v10.2h21.9v-10.2c0-5.3-.7-5.8-5.8-6.2v-1.8h17.2v1.8Z"/>
          <path class="cls-2" d="M457,110.6c6.1,1,11.1,4,11.1,10.2s-2.4,7.8-6.2,9.9c-3.3,1.9-6.6,2.5-11.1,2.5h-15.7v-1.8c5.4-.5,5.8-1.1,5.8-6.1v-25.7c0-5.3-.6-5.8-5.8-6.2v-1.8h16.8c4.8,0,7.8.8,9.9,2.2,2.2,1.5,3.8,3.9,3.8,7.2,0,6-4.9,8.8-8.5,9.7ZM449.6,109.8c7,0,9.9-2.8,9.9-8.1s-2.8-7.9-8.9-7.9-2.9.2-3.6.6c-.5.4-.7,1.1-.7,3.1v12.2h3.3ZM446.4,125.1c0,4.6,1.1,5.8,5.6,5.8s9.9-2.7,9.9-9.4-4.6-9.3-12.4-9.3h-3.1v13Z"/>
          <path class="cls-2" d="M496.5,90.6c10.9,0,20.7,8.4,20.7,21.1s-9.3,22.3-21.1,22.3-21.2-9.3-21.2-21.4,8.1-22.1,21.6-22.1ZM495.2,93c-7.2,0-13.7,6-13.7,18s6.5,20.7,15.6,20.7,13.6-5.8,13.6-18.1-7.1-20.5-15.5-20.5Z"/>
          <path class="cls-2" d="M545.8,133.1v-1.8c4.2-.5,4.7-1.2,3.8-3.6-.8-2.5-2.1-5.7-3.5-9.7h-13.8c-1,2.9-2,5.4-2.9,8-1.4,4.2-.5,4.7,4.7,5.3v1.8h-14.8v-1.8c4-.5,5.1-1,7.3-6.7l13.2-33.6,2-.4c4,10.9,8.4,23,12.5,34.1,2,5.6,2.6,6.1,7.2,6.6v1.8h-15.8ZM539.4,99c-2,5.5-4.2,11.3-6.1,16.4h12l-5.8-16.4Z"/>
          <path class="cls-2" d="M602.1,133.6c-.8,0-1.5,0-2.4-.1-4.7-.3-7.2-1.5-10-5.5-2.4-3.3-4.7-7.3-6.7-10.6-1.3-2-2.1-2.4-5.4-2.4h-2.2v10c0,5.4.7,5.8,5.8,6.3v1.8h-17.1v-1.8c5.3-.6,5.8-.8,5.8-6.3v-25.5c0-5.4-.7-5.6-5.8-6.2v-1.8h16.3c4.7,0,7.8.6,10.2,2.2,2.6,1.7,4.4,4.5,4.4,8.4s-3.5,9-8.3,11c1.2,2,3.9,6.3,5.8,9.2,2.4,3.4,3.6,5,5.1,6.6,1.7,1.9,3.2,2.6,4.7,2.9l-.3,1.8ZM578.5,112.8c3.3,0,5.4-.5,7-1.9,2.5-1.9,3.5-4.4,3.5-7.9,0-6.8-4.5-9.3-9.5-9.3s-2.9.3-3.4.6c-.6.4-.8,1.1-.8,2.8v15.7h3.1Z"/>
          <path class="cls-2" d="M622.4,91.5c9,0,14.7,1.8,18.7,5.6,3.1,3.1,5.4,7.6,5.4,13.7s-3.1,13.6-8,17.3c-4.9,3.6-11.1,5.1-18.9,5.1h-15v-1.8c5.5-.5,5.8-1,5.8-6.2v-25.5c0-5.5-.8-5.8-5.8-6.3v-1.8h17.8ZM615.9,124.6c0,4.8,2,6.1,6.8,6.1,11.5,0,17.4-7.9,17.4-19.1s-2.4-12.3-7.4-15.4c-2.9-1.9-6.7-2.6-10.9-2.6s-4.4.4-5.1.9c-.6.4-.8,1.1-.8,3.6v26.4Z"/>
        </g>
      </g>
    </g>
  </g>
</svg>